{"title":"Arthur Christmas 2011 TS XviD-BlackStaticRG","uid":6902833,"size":757231310,"categoryP":"video","categoryS":"movies","magnet":"?xt=urn:btih:251510a19a430e7a243093701b2471bf74926a42&amp;dn=Arthur+Christmas+2011+TS+XviD-BlackStaticRG&amp;tr=udp%3A%2F%2Ftracker.openbittorrent.com%3A80&amp;tr=udp%3A%2F%2Fopen.demonii.com%3A1337&amp;tr=udp%3A%2F%2Ftracker.coppersurfer.tk%3A6969&amp;tr=udp%3A%2F%2Fexodus.desync.com%3A6969","seeders":1,"leechers":0,"uploader":"rcbcsk","files":-1,"time":1324466344,"description":"Format : AVI\nFormat/Info : Audio Video Interleave\nFile size : 716 MiB\nDuration : 1h 31mn\nOverall bit rate : 1 095 Kbps\nWriting library : VirtualDub build 32842/release\n\nVideo\nID : 0\nFormat : MPEG-4 Visual\nFormat profile : Advanced Simple@L4\nFormat settings, BVOP : 2\nFormat settings, QPel : No\nFormat settings, GMC : No warppoints\nFormat settings, Matrix : Default (H.263)\nMuxing mode : Packed bitstream\nCodec ID : XVID\nCodec ID/Hint : XviD\nDuration : 1h 31mn\nBit rate : 702 Kbps\nWidth : 720 pixels\nHeight : 306 pixels\nDisplay aspect ratio : 2.35:1\nFrame rate : 24.000 fps\nColor space : YUV\nChroma subsampling : 4:2:0\nBit depth : 8 bits\nScan type : Progressive\nCompression mode : Lossy\nBits/(Pixel*Frame) : 0.133\nStream size : 459 MiB (64%)\nWriting library : XviD 64\n\nAudio\nID : 1\nFormat : AC-3\nFormat/Info : Audio Coding 3\nMode extension : CM (complete main)\nCodec ID : 2000\nDuration : 1h 31mn\nBit rate mode : Constant\nBit rate : 384 Kbps\nChannel(s) : 6 channels\nChannel positions : Front: L C R, Side: L R, LFE\nSampling rate : 48.0 KHz\nBit depth : 16 bits\nCompression mode : Lossy\nStream size : 251 MiB (35%)\nAlignment : Aligned on interleaves\nInterleave, duration : 42 ms (1.00 video frame)\nInterleave, preload duration : 512 ms\n\n\n &lt;a href=&quot;\nhttp://www.imdb.com/title/tt1430607/&quot; rel=&quot;nofollow&quot; target=&quot;_NEW&quot;&gt;\nhttp://www.imdb.com/title/tt1430607/&lt;/a&gt;\n\n\n\nRatings: 7.2/10 from 2,661 users Metascore: 69/100\nReviews: 29 user | 117 critic | 32 from Metacritic.com\n\nOn Christmas night at the North Pole, Santa's youngest son looks to use his father's high-tech operation for an urgent mission.\nDirector:\nSarah Smith\nWriters:\nPeter Baynham (screenplay), Sarah Smith (screenplay)\nStars:\nJonah Hill, Ari Graynor and Sam Rockwell\n\n\n","torrent":{"xt":"urn:btih:251510a19a430e7a243093701b2471bf74926a42","amp;dn":"Arthur+Christmas+2011+TS+XviD-BlackStaticRG","amp;tr":["udp%3A%2F%2Ftracker.openbittorrent.com%3A80","udp%3A%2F%2Fopen.demonii.com%3A1337","udp%3A%2F%2Ftracker.coppersurfer.tk%3A6969","udp%3A%2F%2Fexodus.desync.com%3A6969"],"infoHash":"251510a19a430e7a243093701b2471bf74926a42","infoHashBuffer":{"type":"Buffer","data":[37,21,16,161,154,67,14,122,36,48,147,112,27,36,113,191,116,146,106,66]},"announce":[],"urlList":[]}}